# xmcd
#
# Track frame offsets:
# 150
# 9812
# 21735
# 33925
# 44437
# 55372
# 66612
# 76195
# 89777
# 106427
# 121955
# 132632
# 142995
# 156080
# 167132
# 179702
# 196315
# 208155
# 224452
# 237537
#
# Disc length: 3317 seconds
#
#
# Revision: 0
# Processed by: cddbd v1.5.2PL0 Copyright (c) Steve Scherf et al.
# Submitted via: FreeRIP 2.945 
#
DISCID=350cf314
DTITLE=THE FEVERS - 22 SUCESSOS DE OURO
DYEAR=1900
DGENRE=Pop
TTITLE0=VEM ME AJUDAR
TTITLE1=JÁ CANSEI
TTITLE2=AGORA EU SEI
TTITLE3=CÂNDIDA
TTITLE4=MAR DE ROSAS
TTITLE5=HEY GIRL
TTITLE6=ALGUÉM EM MEU CAMINHO
TTITLE7=SOU FELIZ
TTITLE8=NINGUÉM VIVE SEM AMÔR
TTITLE9=SE VOCÊ DISSER QUE SIM
TTITLE10=ONDE ESTÃOSEUS OLHOS NEGROS
TTITLE11=VOCÊ MORREU PRÁ MIM
TTITLE12=DEUS
TTITLE13=PALOMA BLANCA
TTITLE14=GUERRA DOS SEXOS
TTITLE15=ELAS POR ELAS
TTITLE16=DE QUE VALE TANTO AMÔR
TTITLE17=NATHALIE
TTITLE18=VOCÊ NÃO SABE O QUE ESTÁ PERDENDO
TTITLE19=MARCAS DO QUE SE FOI
EXTD=THE FEVERS
EXTT0=
EXTT1=
EXTT2=
EXTT3=
EXTT4=
EXTT5=
EXTT6=
EXTT7=
EXTT8=
EXTT9=
EXTT10=
EXTT11=
EXTT12=
EXTT13=
EXTT14=
EXTT15=
EXTT16=
EXTT17=
EXTT18=
EXTT19=
PLAYORDER=
